# xmcd
#
# Track frame offsets:
# 150
# 19337
# 36831
# 50092
# 87747
# 121836
# 139528
# 169115
# 189412
#
# Disc length: 2786 seconds
#
# Revision: 0
# Processed by: cddbd v1.5.2PL0 Copyright (c) Steve Scherf et al.
# Submitted via: Audion 3.0.2 (http://www.panic.com/audion/)
#
DISCID=790ae009
DTITLE=Santana - Caravanserai
DYEAR=1900
DGENRE=
TTITLE0=Eternal Caravan of Reincarnation
TTITLE1=Waves Within
TTITLE2=Look Up (To See What's Coming Down)
TTITLE3=Just In Time To See The Sun
TTITLE4=Song of the Wind
TTITLE5=All the Love of the Universe
TTITLE6=Future Primitive
TTITLE7=Stone Flower
TTITLE8=La Fuente del Ritmo
EXTD=
EXTT0=
EXTT1=
EXTT2=
EXTT3=
EXTT4=
EXTT5=
EXTT6=
EXTT7=
EXTT8=
PLAYORDER=
